# File created by Blade
# Date/Time:  Tue Sep 30 19:11:52 2014
#---------------------------------------------------------
:version 1.10
:name HOM
:units
  mass 1.0
  length 1.000000
  angle deg
:documentation
     Acclaim Skeleton File
:root
   axis xyz
   order TX TY TZ RX RY RZ
   position 0.000000 0.000000 0.000000
   orientation 0 0 0
:bonedata
   begin
      id 1
      name Spine_dum
      direction 0.000000 1.000000 0.000000
      length 7.508948
      axis 0.0 0.0 0.0 xyz
   end
   begin
      id 2
      name LeftUpLeg_dum
      direction 1.000000 0.000000 0.000000
      length 3.000560
      axis 0.0 0.0 0.0 xyz
   end
   begin
      id 3
      name RightUpLeg_dum
      direction -1.000000 0.000000 0.000000
      length 3.000560
      axis 0.0 0.0 0.0 xyz
   end
   begin
      id 4
      name Spine
      direction 0.000000 1.000000 0.000000
      length 0.000000
      axis 0.0 0.0 0.0 xyz
      dof rx ry rz
   end
   begin
      id 5
      name Spine_dum1
      direction 0.000000 1.000000 0.000000
      length 13.861154
      axis 0.0 0.0 0.0 xyz
   end
   begin
      id 6
      name Spine_dum2
      direction 0.000000 1.000000 0.000000
      length 8.204781
      axis 0.0 0.0 0.0 xyz
   end
   begin
      id 7
      name Spine_dum3
      direction 0.000000 1.000000 0.000000
      length 8.204781
      axis 0.0 0.0 0.0 xyz
   end
   begin
      id 8
      name Head
      direction 0.000000 1.000000 0.000000
      length 4.527550
      axis 0.0 0.0 0.0 xyz
      dof rx ry rz
   end
   begin
      id 9
      name LeftShoulder
      direction 1.000000 0.000000 0.000000
      length 6.635956
      axis 0.0 0.0 -90.0 xyz
      dof rx ry rz
   end
   begin
      id 10
      name LeftArm
      direction 1.000000 0.000000 0.000000
      length 10.274218
      axis 0.0 0.0 -90.0 xyz
      dof rx ry rz
   end
   begin
      id 11
      name LeftForeArm
      direction 1.000000 0.000000 0.000000
      length 8.522147
      axis 0.0 0.0 -90.0 xyz
      dof ry rz rx
   end
   begin
      id 12
      name LeftHand
      direction 0.000000 0.000000 0.000000
      length 0.000000
      axis 0.0 0.0 -90.0 xyz
      dof rx ry rz
   end
   begin
      id 13
      name LeftHand_dum1
      direction 0.000000 0.000000 0.000000
      length 0.000000
      axis 0.0 0.0 -90.0 xyz
   end
   begin
      id 14
      name LeftHand_dum2
      direction 1.000000 0.000000 0.000000
      length 3.937000
      axis 0.0 0.0 -90.0 xyz
   end
   begin
      id 15
      name LeftHandThumb1
      direction 0.000000 0.000000 1.000000
      length 3.937000
      axis 0.0 0.0 -90.0 xyz
      dof rx rz ry
   end
   begin
      id 16
      name RightShoulder
      direction -1.000000 0.000000 0.000000
      length 6.635956
      axis 0.0 0.0 90.0 xyz
      dof rx ry rz
   end
   begin
      id 17
      name RightArm
      direction -1.000000 0.000000 0.000000
      length 10.274218
      axis 0.0 0.0 90.0 xyz
      dof rx ry rz
   end
   begin
      id 18
      name RightForeArm
      direction -1.000000 0.000000 0.000000
      length 8.522147
      axis 0.0 0.0 90.0 xyz
      dof ry rz rx
   end
   begin
      id 19
      name RightHand
      direction 0.000000 0.000000 0.000000
      length 0.000000
      axis 0.0 0.0 90.0 xyz
      dof rx ry rz
   end
   begin
      id 20
      name RightHand_dum1
      direction 0.000000 0.000000 0.000000
      length 0.000000
      axis 0.0 0.0 90.0 xyz
   end
   begin
      id 21
      name RightHand_dum2
      direction -1.000000 0.000000 0.000000
      length 3.937000
      axis 0.0 0.0 90.0 xyz
   end
   begin
      id 22
      name RightHandThumb1
      direction 0.000000 0.000000 1.000000
      length 3.937000
      axis 0.0 0.0 90.0 xyz
      dof rx rz ry
   end
   begin
      id 23
      name LeftUpLeg
      direction 0.000000 -1.000000 0.000000
      length 16.490845
      axis 0.0 0.0 0.0 xyz
      dof rx ry rz
   end
   begin
      id 24
      name LeftLeg
      direction 0.000000 -1.000000 0.000000
      length 14.556576
      axis 0.0 0.0 0.0 xyz
      dof rx ry rz
   end
   begin
      id 25
      name LeftFoot
      direction 0.000000 -0.258819 0.965926
      length 4.831116
      axis 15.0 0.0 0.0 xyz
      dof rx ry rz
   end
   begin
      id 26
      name LeftToeBase
      direction 0.000000 0.000000 1.000000
      length 2.952750
      axis 0.0 0.0 0.0 xyz
      dof rx ry rz
   end
   begin
      id 27
      name RightUpLeg
      direction 0.000000 -1.000000 0.000000
      length 16.490845
      axis 0.0 0.0 0.0 xyz
      dof rx ry rz
   end
   begin
      id 28
      name RightLeg
      direction 0.000000 -1.000000 0.000000
      length 14.556576
      axis 0.0 0.0 0.0 xyz
      dof rx ry rz
   end
   begin
      id 29
      name RightFoot
      direction 0.000000 -0.258819 0.965926
      length 4.831116
      axis 15.0 0.0 0.0 xyz
      dof rx ry rz
   end
   begin
      id 30
      name RightToeBase
      direction 0.000000 0.000000 1.000000
      length 2.952750
      axis 0.0 0.0 0.0 xyz
      dof rx ry rz
   end
:hierarchy
   begin
      root Spine_dum LeftUpLeg_dum RightUpLeg_dum
      Spine_dum Spine
      LeftUpLeg_dum LeftUpLeg
      RightUpLeg_dum RightUpLeg
      Spine Spine_dum1 Spine_dum2 Spine_dum3
      Spine_dum1 Head
      Spine_dum2 LeftShoulder
      Spine_dum3 RightShoulder
      LeftShoulder LeftArm
      LeftArm LeftForeArm
      LeftForeArm LeftHand
      LeftHand LeftHand_dum1 LeftHand_dum2
      LeftHand_dum1 LeftHandThumb1
      RightShoulder RightArm
      RightArm RightForeArm
      RightForeArm RightHand
      RightHand RightHand_dum1 RightHand_dum2
      RightHand_dum1 RightHandThumb1
      LeftUpLeg LeftLeg
      LeftLeg LeftFoot
      LeftFoot LeftToeBase
      RightUpLeg RightLeg
      RightLeg RightFoot
      RightFoot RightToeBase
   end

# File created by Blade
# Date/Time:  Thu Sep 25 15:55:53 2014
# Frame Rate: 120.000 fps
#------------------------------------------------------
:FULLY-SPECIFIED
:DEGREES
32
root -3.245025 32.852177 -2.436011 11.114425 -3.591854 -2.097623
Spine -12.293659 7.630981 1.169299
Head -10.434623 -7.441384 10.670602
LeftShoulder -12.021082 22.879482 27.131157
LeftArm 23.651332 -23.214445 -29.269490
LeftForeArm 7.266123 -0.000000 13.474265
LeftHand -28.095716 -0.000000 -2.804671
LeftHandThumb1 -26.253704 0.000000 33.147579
RightShoulder -16.073441 11.658143 -37.817040
RightArm -7.512485 9.218498 32.267324
RightForeArm -29.272043 -0.000000 17.582468
RightHand -8.696483 -0.000000 6.048517
RightHandThumb1 -24.326973 -0.000000 -32.862282
LeftUpLeg -4.988054 12.216087 2.815775
LeftLeg 0.091099 -0.000000 -0.000000
LeftFoot -12.201235 8.578147 -18.860885
LeftToeBase 5.160351 -0.000000 -0.000000
RightUpLeg -7.517685 -7.279705 1.422452
RightLeg 2.802108 -0.000000 -0.000000
RightFoot -8.653394 -1.713409 -4.805807
RightToeBase -0.795085 -0.000000 0.000000
33
root -3.256606 32.852753 -2.440298 11.104403 -3.605994 -2.117939
Spine -12.284488 7.640581 1.177385
Head -10.408594 -7.426344 10.702870
LeftShoulder -12.039044 22.905075 27.098251
LeftArm 23.634959 -23.180451 -29.214392
LeftForeArm 7.195723 -0.000000 13.532734
LeftHand -28.137198 -0.000000 -2.804433
LeftHandThumb1 -26.253704 0.000000 33.147579
RightShoulder -16.077693 11.658717 -37.769896
RightArm -7.457281 9.173302 32.247045
RightForeArm -29.251578 0.000000 17.574039
RightHand -8.711887 -0.000000 6.051885
RightHandThumb1 -24.326973 -0.000000 -32.862282
LeftUpLeg -4.968607 12.180449 2.859892
LeftLeg 0.063027 -0.000000 -0.000000
LeftFoot -12.184418 8.640173 -18.891881
LeftToeBase 5.070450 -0.000000 -0.000000
RightUpLeg -7.512830 -7.240621 1.461663
RightLeg 2.799189 -0.000000 -0.000000
RightFoot -8.636255 -1.748832 -4.834770
RightToeBase -0.768973 -0.000000 0.000000
34
root -3.267173 32.853354 -2.443415 11.105197 -3.671031 -2.117204
Spine -12.288587 7.704837 1.156066
Head -10.417128 -7.441665 10.704705
LeftShoulder -12.023593 22.899219 27.067586
LeftArm 23.615420 -23.200541 -29.198861
LeftForeArm 7.234271 -0.000000 13.536528
LeftHand -28.097214 -0.000000 -2.756045
LeftHandThumb1 -26.253704 0.000000 33.147579
RightShoulder -16.096666 11.640503 -37.741481
RightArm -7.395370 9.135755 32.252185
RightForeArm -29.270049 -0.000000 17.571743
RightHand -8.536838 -0.000000 6.146524
RightHandThumb1 -24.326973 -0.000000 -32.862282
LeftUpLeg -4.954465 12.225916 2.871754
LeftLeg 0.040236 -0.000000 -0.000000
LeftFoot -12.156204 8.661725 -18.936232
LeftToeBase 5.106195 -0.000000 -0.000000
RightUpLeg -7.526958 -7.166418 1.469014
RightLeg 2.806675 -0.000000 -0.000000
RightFoot -8.636136 -1.768303 -4.873839
RightToeBase -0.775617 -0.000000 0.000000
35
root -3.277118 32.854251 -2.449288 11.104708 -3.697000 -2.120520
Spine -12.279898 7.744865 1.147332
Head -10.433731 -7.429653 10.725569
LeftShoulder -12.017007 22.898481 27.041756
LeftArm 23.564954 -23.269599 -29.231273
LeftForeArm 7.281906 -0.000000 13.721898
LeftHand -28.224029 -0.000000 -2.933114
LeftHandThumb1 -26.253704 0.000000 33.147579
RightShoulder -16.126346 11.617038 -37.710587
RightArm -7.334856 9.084056 32.264258
RightForeArm -29.291000 -0.000000 17.575360
RightHand -8.650178 -0.000000 5.998143
RightHandThumb1 -24.326973 -0.000000 -32.862282
LeftUpLeg -4.960070 12.197621 2.891777
LeftLeg 0.040003 -0.000000 -0.000000
LeftFoot -12.146603 8.722675 -19.020942
LeftToeBase 5.017522 -0.000000 -0.000000
RightUpLeg -7.540194 -7.111477 1.491160
RightLeg 2.818912 -0.000000 -0.000000
RightFoot -8.627469 -1.833058 -4.828525
RightToeBase -0.784577 -0.000000 0.000000
36
root -3.288211 32.855514 -2.455569 11.100480 -3.714757 -2.126176
Spine -12.267811 7.777486 1.140674
Head -10.446192 -7.432439 10.745075
LeftShoulder -11.990902 22.878836 27.006766
LeftArm 23.527321 -23.235997 -29.204107
LeftForeArm 7.370243 -0.000000 13.764521
LeftHand -28.278148 0.000000 -2.812585
LeftHandThumb1 -26.253704 0.000000 33.147579
RightShoulder -16.160175 11.603093 -37.681708
RightArm -7.283374 9.068812 32.277589
RightForeArm -29.294239 0.000000 17.592510
RightHand -8.677677 -0.000000 5.969038
RightHandThumb1 -24.326973 -0.000000 -32.862282
LeftUpLeg -4.972975 12.177300 2.921756
LeftLeg 0.064103 -0.000000 -0.000000
LeftFoot -12.150547 8.746984 -19.123769
LeftToeBase 5.005988 -0.000000 -0.000000
RightUpLeg -7.549762 -7.087847 1.515051
RightLeg 2.822618 -0.000000 -0.000000
RightFoot -8.604779 -1.838275 -4.847345
RightToeBase -0.805181 -0.000000 0.000000
37
root -3.297951 32.856374 -2.463674 11.112769 -3.738733 -2.125408
Spine -12.264360 7.801241 1.142204
Head -10.478196 -7.409918 10.736138
LeftShoulder -11.944548 22.813588 26.957420
LeftArm 23.470945 -23.164981 -29.152717
LeftForeArm 7.451464 -0.000000 13.662800
LeftHand -28.208753 -0.000000 -2.543021
LeftHandThumb1 -26.253704 0.000000 33.147579
RightShoulder -16.156047 11.662634 -37.713547
RightArm -7.335632 9.067660 32.323183
RightForeArm -29.376731 -0.000000 17.647752
RightHand -8.873649 -0.000000 5.910971
RightHandThumb1 -24.326973 -0.000000 -32.862282
LeftUpLeg -4.998116 12.103933 2.940389
LeftLeg 0.070737 -0.000000 -0.000000
LeftFoot -12.152968 8.839769 -19.199800
LeftToeBase 5.016104 -0.000000 -0.000000
RightUpLeg -7.589542 -7.080880 1.535149
RightLeg 2.835224 -0.000000 -0.000000
RightFoot -8.592866 -1.849631 -5.004576
RightToeBase -0.841402 -0.000000 0.000000
38
root -3.309448 32.857862 -2.471803 11.115986 -3.769788 -2.126911
Spine -12.250682 7.830571 1.140800
Head -10.502633 -7.400291 10.728423
LeftShoulder -11.943619 22.848711 26.926537
LeftArm 23.472643 -23.252992 -29.237769
LeftForeArm 7.419032 -0.000000 13.773700
LeftHand -28.305852 -0.000000 -2.427540
LeftHandThumb1 -26.253704 0.000000 33.147579
RightShoulder -16.158275 11.682687 -37.706700
RightArm -7.323819 9.037264 32.365236
RightForeArm -29.378873 -0.000000 17.670048
RightHand -8.828807 -0.000000 5.851637
RightHandThumb1 -24.326973 -0.000000 -32.862282
LeftUpLeg -5.030741 12.091395 2.962885
LeftLeg 0.115544 -0.000000 -0.000000
LeftFoot -12.139597 8.857380 -19.312612
LeftToeBase 4.939992 -0.000000 -0.000000
RightUpLeg -7.623570 -7.072483 1.555901
RightLeg 2.863766 -0.000000 -0.000000
RightFoot -8.586251 -1.807676 -4.992986
RightToeBase -0.798618 -0.000000 0.000000
